<?xml version="1.0" encoding="utf-8"?>
<!-- Generator: Adobe Illustrator 15.0.0, SVG Export Plug-In . SVG Version: 6.00 Build 0)  -->
<!DOCTYPE svg PUBLIC "-//W3C//DTD SVG 1.1//EN" "http://www.w3.org/Graphics/SVG/1.1/DTD/svg11.dtd">
<svg version="1.1" id="Layer_1" xmlns="http://www.w3.org/2000/svg" xmlns:xlink="http://www.w3.org/1999/xlink" x="0px" y="0px"
	 width="120px" height="97px" viewBox="0 0 120 97" enable-background="new 0 0 120 97" xml:space="preserve">
<g fill="#fff" transform="translate(0.000000,97.000000) scale(0.100000,-0.100000)">
	<path d="M547.998,948.721c-5.996-20-6.997-20-17.998-5c-13.999,18.999-48.999,11.001-41.001-10
		c7.002-20-11.001-26.997-21.997-8.999c-10,18.999-46.001,8.999-38.003-11.001c3.003-6.997,1.001-16.001-3.999-18.999
		c-3.999-2.998-10,0-12.002,6.001c-1.997,6.997-12.998,8.999-25.996,5C370,899.722,366.001,892.72,370,878.721
		c7.002-21.001-5-25-21.001-8.999c-7.998,7.998-15,6.001-23.999-5c-10-12.002-10-17.998,1.001-31.001
		c11.001-12.998,8.999-15-17.002-11.997c-26.001,2.998-28.999,0-26.997-23.003c0.996-21.001-2.002-26.001-16.001-21.997
		c-22.002,5.996-36.001-24.004-20-43.003c8.999-11.001,7.998-13.999-3.003-13.999c-7.998,0-18.999-5-25.996-12.002
		c-9.004-8.999-8.003-15.996,5-30c15-16.997,15-17.998-5-17.998c-27.002,0-29.004-27.002-5-46.001
		c16.997-11.997,15.996-12.998-4.004-13.999C190,599.722,185,593.721,185,575.723c0-15,7.002-26.001,17.998-28.999
		c16.001-4.004,16.001-5,0-6.001C191.001,539.722,185,531.724,185,514.722c0-18.999,5-25,22.998-25c20-1.001,21.001-2.002,5-13.999
		c-25-19.004-22.998-45.996,3.003-45.996c16.997,0,18.999-3.008,10-14.004c-13.999-16.992-3.003-49.004,15-41.992
		c6.997,2.988,16.001,0.996,18.999-4.004c3.999-5.996,1.001-10-5-10s-10-10-7.998-22.012c1.997-17.988,8.999-21.992,27.998-20
		c18.999,2.012,22.002,0,12.998-8.984c-7.998-8.008-8.999-18.008-1.997-31.016c7.998-15,13.999-15.996,31.001-6.992
		c15.996,9.004,18.999,8.008,15.996-3.008c-2.998-6.992-21.997-15-43.999-17.988c-30-4.004-40-10-41.997-27.012
		c-3.003-21.992-29.004-26.992-192.002-35.996l-45-1.992l58.999-39.004l58.999-39.004l-26.997-20.996
		c-15-11.992-40-31.992-57.002-45.996l-30-25l63.003,1.992c35,2.012,106.997,8.008,160.996,14.004c81.001,10,97.002,15,97.002,30
		c0,21.992,22.002,26.992,162.002,38.008c105.996,8.984,287.998,0.996,350-14.004c13.994-4.004,27.998-15,30.996-24.004
		c2.998-14.004,24.004-20,102.998-30C1035,23.73,1107.002,19.727,1140,21.719l60,3.008l-59.004,37.988l-58.994,39.004l55.996,35.996
		c31.006,21.016,57.002,40,57.002,45c0,4.004-24.004,7.012-54.004,7.012c-28.994,0-80.996,2.988-115,5.996
		C970,201.719,965,204.727,965,225.723c0,20-5,24.004-29.004,24.004c-15.996,0-35,6.992-41.992,15.996
		c-12.002,15-11.006,15.996,6.992,10c14.004-4.004,26.006-0.996,35,10c11.006,13.008,11.006,18.008,2.002,20.996
		c-7.002,3.008-12.998,9.004-12.998,15c0,5,7.998,7.012,19.004,3.008c10.996-3.008,23.994,0.996,31.992,10.996
		c11.006,13.008,11.006,18.008,2.002,20.996C970.996,359.727,965,367.715,965,375.723c0,8.008,5.996,10.996,15,8.008
		c9.004-4.004,17.998,0.996,22.002,11.992c3.994,10,2.002,19.004-5,21.992c-17.002,5-15,22.012,2.998,22.012
		c24.004,0,30,29.004,10,43.994c-17.002,12.002-17.002,13.003,4.004,18.999c23.994,6.001,30,47.002,5.996,47.002
		c-7.998,0-15,5-15,10c0,6.001,7.002,10,15,10c22.002,0,17.998,31.001-5,37.002c-24.004,5.996-27.002,22.998-4.004,22.998
		c11.006,0,14.004,5,10,16.001c-2.998,8.999-5.996,17.998-5.996,20c0,1.997-7.002,3.999-15,3.999c-17.002,0-20,17.002-4.004,22.002
		c17.002,5.996-1.992,37.998-22.998,37.998c-15.996,0-17.998,2.998-8.994,13.999c16.992,21.001,2.998,48.003-22.002,40
		c-16.006-5-19.004-2.998-14.004,10c11.006,28.999-2.998,46.001-32.002,38.999c-21.992-5-23.994-3.999-12.998,9.004
		c17.002,20.996-10.996,46.997-30.996,28.999c-17.002-13.999-30-2.002-16.006,15c8.008,8.999,5,15-10,22.998
		c-12.998,7.002-21.992,8.003-25.996,1.001c-9.004-13.999-25-12.002-20,2.998c2.998,6.001-2.998,17.002-14.004,24.004
		c-15.996,10-20,8.999-25-2.002c-2.998-7.998-10-15-16.992-15c-6.006,0-8.008,7.002-5,15c8.994,23.999-24.004,32.002-41.006,8.999
		c-12.998-17.998-13.994-17.998-18.994,3.999c-7.002,25-44.004,31.001-44.004,7.002c0-7.998-4.004-15-10-15c-5,0-10,7.002-10,15
		C595,978.721,553.999,972.72,547.998,948.721z M607.002,919.722c5,0,12.998,10,17.998,22.998l9.004,22.002l6.992-22.002
		c8.008-26.997,32.002-30,50-5c12.002,16.001,13.008,15,14.004-5c0-25,27.998-30.996,47.998-10.996
		c9.004,8.999,12.002,6.997,12.002-9.004c0-21.997,25-38.999,35-22.998s27.998,12.002,22.002-3.999
		c-9.004-23.003,20-41.001,38.994-25c14.004,11.001,16.006,10,14.004-6.001c-5-41.001-0.996-46.001,27.998-38.999
		c24.004,6.997,26.006,6.001,12.998-8.999c-17.998-23.003,4.004-54.004,25-36.001c11.006,8.999,14.004,7.998,14.004-5
		c0-8.999-5-16.001-10-16.001c-7.002,0-7.002-7.002,0-21.001c7.002-11.997,17.998-17.998,25.996-15
		c17.002,6.001,18.008-6.001,3.008-21.001c-13.008-12.998-4.004-32.998,16.992-32.998c8.008,0,14.004-3.999,14.004-10
		c0-5-4.004-10-10-10c-5,0-10-8.999-10-20s7.002-20,15-20s15-3.999,15-8.999s-7.002-11.001-15-15c-7.998-3.003-15-12.002-15-21.001
		c0-7.998,7.002-15,15-15s15-7.002,15-15c0-8.999-5.996-12.002-15-8.999c-22.002,8.999-20-32.002,2.998-45
		c16.006-9.004,16.006-10-2.998-16.992c-29.004-11.016-35.996-26.016-17.002-41.016c15-10.996,15-11.992-3.994-12.988
		c-23.008,0-43.008-32.012-25-38.008c18.994-5.996,11.992-25-7.002-20c-12.002,3.008-24.004-1.992-31.006-12.988
		c-6.992-12.012-6.992-19.004-0.996-19.004c5,0,10-5,10-10.996c0-6.016-9.004-8.008-20.996-4.004c-15,5-22.002,1.992-26.006-14.004
		C875,266.719,865,259.727,849.004,259.727c-32.002,0-30,5,8.994,40c19.004,15.996,49.004,57.988,67.002,91.992
		c30.996,58.008,34.004,70,35,154.004c0,86.001-2.002,96.001-35.996,160c-88.008,170-297.002,241.001-466.006,157.998
		C315,794.722,228.999,637.72,256.001,494.722c12.998-68.003,52.998-148.003,95-187.007C370,289.727,385,271.719,385,267.715
		c0-13.984-27.002-8.984-40,7.012c-7.002,9.004-21.001,12.988-31.001,10c-15-5-17.998-0.996-16.001,21.992
		c2.002,24.004-1.997,28.008-20,25.996c-23.999-2.988-31.997,12.012-10.996,19.004c6.997,3.008,8.999,12.012,5,22.012
		c-4.004,10.996-13.003,15.996-22.002,11.992c-7.998-3.008-17.002-0.996-20,4.004c-3.999,5.996-1.001,10,5,10s10,10,7.998,22.988
		c-1.997,12.012-7.998,22.012-15,22.012c-5.996,0-15,2.988-18.999,6.992c-3.999,5,0,8.008,8.999,8.008
		c25,0,22.002,40.996-2.998,46.997c-11.001,2.998-17.002,8.999-13.999,13.999c2.998,5,10,6.997,15,3.999
		c5-3.999,8.999,5,8.999,18.999c0,17.002-6.001,26.001-16.001,26.001c-7.998,0-11.997,5-8.999,10c3.999,6.001,10,7.998,15,5
		c3.999-2.998,11.001,2.002,13.999,11.001c10,25,7.002,33.999-8.999,33.999c-7.998,0-15,5-15,10c0,6.001,8.999,10,20,10
		c12.998,0,20,7.002,20,20c0,11.001-3.999,20-10,20c-5,0-10,5-10,11.001s6.001,8.999,13.999,6.001c8.003-3.003,20,0.996,27.002,10
		c11.001,11.997,10,16.997-3.999,25c-10,5-15,13.999-11.001,18.999c3.999,6.001,10,6.001,18.999-1.001
		c20-17.002,42.002,15,23.999,37.002c-11.997,15-11.997,15.996,8.003,10.996c25.996-6.997,45.996,12.002,36.997,36.001
		c-2.998,8.999-1.997,16.001,3.999,16.001c6.001,0,12.002-6.001,15-12.002c7.002-21.997,36.001,10,30,32.002
		c-5,20,12.002,28.999,19.004,8.999c1.997-5,10.996-6.997,20.996-2.998c10,2.998,16.001,12.998,13.003,20
		c-3.003,7.998,1.001,13.999,7.998,13.999c8.003,0,16.001-5,18.003-11.001c1.997-5,10.996-6.997,20.996-2.998
		c10,2.998,16.001,12.998,13.003,20c-3.003,6.997-1.001,16.001,5,18.999c5,3.999,11.997-1.001,15-8.999c10-25,43.999-20,45,6.997
		v22.002l16.001-22.002C590,929.722,602.002,919.722,607.002,919.722z M739.004,861.724c77.998-35,140.996-95,177.998-170
		C945.996,632.72,950,615.723,950,544.722c-0.996-68.003-5-88.999-30-138.999c-17.002-33.008-47.002-75.996-67.002-95
		l-37.002-35.996l-203.994,0.996c-240,0.996-242.002,0.996-304.004,111.992c-36.997,65-37.998,70-37.998,162.007
		c1.001,77.998,5,102.002,22.998,137.002C382.002,855.723,577.998,932.72,739.004,861.724z M797.998,254.727
		c76.006-8.008,142.002-17.012,147.998-20c5-4.004,9.004-40,9.004-80.996c0-67.012-2.002-75-17.002-70
		c-125,36.992-530.996,36.992-655,0c-15.996-5-17.998,2.988-17.998,73.984v80l102.998,11.016
		c56.001,6.992,111.001,12.988,122.002,15C542.002,271.719,672.998,267.715,797.998,254.727z M245,128.73V66.719l40,7.012
		c22.002,2.988,40,1.992,40-3.008c0-14.004-76.001-29.004-180-35.996C52.002,28.73,51.001,28.73,72.998,46.719
		c13.003,10,35,28.008,50,39.004l26.001,21.992l-46.997,28.008C76.001,151.719,55,167.715,55,171.719s30,9.004,67.998,10.996
		c37.002,2.012,79.004,4.004,95,5C245,189.727,245,188.73,245,128.73z M1162.998,174.727C1165,173.73,1145,158.73,1120,143.73
		c-25-16.016-45-34.004-45-40c0-7.012,20.996-26.016,47.998-44.004L1170,27.715l-90,6.016c-100.996,6.992-195,25-195,37.988
		c0,4.004,9.004,8.008,20,8.008s20-4.004,20-9.004s9.004-6.992,20-4.004c17.002,5,20,14.004,20,64.004v59.004l97.998-5.996
		C1115.996,179.727,1160.996,175.723,1162.998,174.727z"/>
</g>
<g fill="#fff">
	<g>
		<path d="M27.503,40.748c1.036,0.123,2.071,0.243,3.107,0.359c-0.018,0.202-0.034,0.404-0.048,0.608
			c-1.038-0.097-2.076-0.196-3.113-0.299C27.466,41.192,27.484,40.97,27.503,40.748z"/>
		<path d="M30.715,40.073c-1.032-0.151-2.064-0.305-3.095-0.462c0.027-0.237,0.057-0.473,0.088-0.707
			c0.59-0.433,1.186-0.835,1.787-1.208c0.416-0.254,0.787-0.442,1.139-0.568c0-0.007-0.001-0.014-0.001-0.021
			c-0.417-0.045-0.791-0.121-1.265-0.237c-0.425-0.103-0.85-0.206-1.275-0.31c0.037-0.191,0.076-0.381,0.116-0.571
			c1.011,0.266,2.023,0.528,3.037,0.788c-0.039,0.185-0.076,0.371-0.112,0.558c-0.604,0.333-1.203,0.694-1.798,1.084
			c-0.391,0.256-0.788,0.511-1.153,0.693c0.001,0.007,0.001,0.015,0.002,0.022c0.395,0.03,0.766,0.085,1.279,0.171
			c0.439,0.073,0.879,0.146,1.319,0.218C30.758,39.706,30.736,39.889,30.715,40.073z"/>
		<path d="M28.992,34.188c-0.121,0.451-0.233,0.909-0.338,1.373c-0.111-0.031-0.222-0.062-0.332-0.093
			c0.258-1.141,0.563-2.243,0.913-3.306c0.107,0.042,0.215,0.083,0.322,0.125c-0.143,0.435-0.278,0.876-0.406,1.324
			c0.883,0.302,1.766,0.602,2.65,0.9c-0.05,0.176-0.099,0.353-0.146,0.53C30.767,34.759,29.879,34.475,28.992,34.188z"/>
		<path d="M31.73,30.268c-0.21,0.497-0.409,1.003-0.597,1.52c0.349,0.147,0.698,0.294,1.047,0.441
			c0.203-0.559,0.419-1.104,0.648-1.639c0.103,0.05,0.205,0.1,0.307,0.149c-0.295,0.688-0.569,1.396-0.819,2.125
			c-0.975-0.389-1.949-0.781-2.922-1.175c0.266-0.77,0.555-1.519,0.866-2.247c0.103,0.05,0.205,0.1,0.308,0.15
			c-0.234,0.547-0.455,1.106-0.663,1.676c0.306,0.13,0.611,0.259,0.917,0.388c0.19-0.522,0.391-1.034,0.603-1.536
			C31.527,30.17,31.628,30.219,31.73,30.268z"/>
		<path d="M34.651,27.421c-0.054,0.23-0.187,0.668-0.432,1.129c-0.275,0.518-0.594,0.895-1.021,1.112
			c-0.377,0.187-0.842,0.198-1.282-0.023c-0.842-0.414-1.103-1.563-0.423-2.831c0.234-0.436,0.496-0.729,0.643-0.85
			c0.071,0.1,0.142,0.198,0.213,0.297c-0.178,0.149-0.365,0.363-0.567,0.739c-0.488,0.91-0.348,1.759,0.354,2.122
			c0.713,0.37,1.381,0.038,1.81-0.767c0.155-0.292,0.233-0.506,0.25-0.632c-0.268-0.166-0.535-0.331-0.803-0.496
			c-0.133,0.235-0.263,0.473-0.39,0.713c-0.094-0.055-0.189-0.11-0.283-0.165c0.209-0.396,0.426-0.785,0.65-1.167
			C33.796,26.876,34.224,27.149,34.651,27.421z"/>
		<path d="M32.568,25.106c0.113-0.253,0.304-0.604,0.505-0.902c0.32-0.477,0.607-0.728,0.89-0.821
			c0.229-0.075,0.472-0.038,0.667,0.117c0.325,0.257,0.346,0.691,0.202,1.091c0.003,0.003,0.007,0.006,0.011,0.009
			c0.239-0.192,0.524-0.199,0.838-0.069c0.423,0.169,0.716,0.287,0.858,0.301c-0.099,0.133-0.198,0.266-0.295,0.401
			c-0.111-0.007-0.372-0.102-0.747-0.256c-0.415-0.171-0.672-0.095-0.941,0.279c-0.088,0.132-0.176,0.265-0.263,0.399
			c0.375,0.262,0.75,0.523,1.126,0.784c-0.088,0.137-0.176,0.275-0.263,0.414C34.294,26.273,33.43,25.691,32.568,25.106z
			 M34.041,25.478c0.095-0.146,0.19-0.292,0.288-0.436c0.305-0.454,0.318-0.876,0.03-1.098c-0.324-0.249-0.69-0.051-1.005,0.416
			c-0.143,0.213-0.227,0.368-0.261,0.456C33.408,25.037,33.724,25.258,34.041,25.478z"/>
		<path d="M36.489,23.282c0.169,0.318,0.342,0.633,0.518,0.946c-0.103,0.129-0.204,0.259-0.304,0.39
			c-0.567-0.998-1.1-2.023-1.596-3.075c0.134-0.159,0.27-0.317,0.407-0.474c1.084,0.367,2.148,0.771,3.19,1.211
			c-0.116,0.121-0.231,0.244-0.345,0.368c-0.33-0.133-0.661-0.263-0.995-0.389C37.066,22.592,36.774,22.933,36.489,23.282z
			 M37.065,22.114c-0.308-0.112-0.617-0.221-0.928-0.327c-0.211-0.073-0.389-0.154-0.564-0.231
			c-0.002,0.002-0.005,0.005-0.008,0.008c0.098,0.168,0.207,0.344,0.299,0.534c0.146,0.301,0.294,0.6,0.447,0.896
			C36.557,22.695,36.809,22.401,37.065,22.114z"/>
		<path d="M37.639,19.356c-0.29,0.276-0.575,0.56-0.855,0.849c-0.082-0.082-0.165-0.164-0.247-0.246
			c0.689-0.711,1.407-1.384,2.152-2.02c0.075,0.089,0.149,0.177,0.225,0.266c-0.305,0.26-0.604,0.526-0.899,0.799
			c0.632,0.696,1.266,1.391,1.902,2.085c-0.116,0.107-0.23,0.215-0.344,0.324C38.926,20.728,38.282,20.043,37.639,19.356z"/>
		<path d="M41.632,17.763c-0.391,0.284-0.776,0.578-1.154,0.881c0.238,0.297,0.477,0.594,0.716,0.89
			c0.408-0.328,0.825-0.645,1.249-0.949c0.067,0.092,0.134,0.185,0.201,0.277c-0.545,0.392-1.079,0.804-1.599,1.236
			c-0.675-0.812-1.349-1.625-2.021-2.44c0.551-0.457,1.115-0.892,1.692-1.308c0.067,0.093,0.134,0.186,0.201,0.278
			c-0.434,0.312-0.859,0.636-1.278,0.971c0.208,0.261,0.417,0.521,0.626,0.781c0.382-0.307,0.771-0.604,1.167-0.891
			C41.499,17.581,41.565,17.672,41.632,17.763z"/>
		<path d="M41.356,15.957c0.23-0.209,0.521-0.437,0.859-0.652c0.613-0.39,1.135-0.529,1.557-0.48
			c0.436,0.049,0.787,0.274,1.038,0.719c0.252,0.448,0.292,0.907,0.152,1.321c-0.148,0.425-0.537,0.836-1.116,1.211
			c-0.279,0.181-0.51,0.319-0.716,0.432C42.537,17.659,41.945,16.809,41.356,15.957z M43.339,17.994
			c0.105-0.052,0.251-0.143,0.404-0.241c0.834-0.533,1.056-1.206,0.628-1.947c-0.366-0.646-1.06-0.811-1.96-0.242
			c-0.219,0.14-0.373,0.263-0.47,0.356C42.406,16.612,42.872,17.303,43.339,17.994z"/>
		<path d="M46.208,13.16c0.449,0.949,0.9,1.897,1.353,2.845c-0.141,0.065-0.281,0.131-0.42,0.198
			c-0.467-0.941-0.933-1.883-1.396-2.826C45.898,13.303,46.053,13.231,46.208,13.16z"/>
		<path d="M48.292,15.68c-0.428-0.958-0.854-1.917-1.278-2.877c0.171-0.073,0.342-0.145,0.514-0.215
			c0.59,0.332,1.166,0.678,1.727,1.037c0.385,0.251,0.704,0.489,0.97,0.738c0.004-0.003,0.009-0.006,0.014-0.01
			c-0.184-0.38-0.324-0.737-0.49-1.197c-0.148-0.413-0.297-0.825-0.444-1.238c0.149-0.052,0.299-0.103,0.449-0.152
			c0.339,0.991,0.681,1.981,1.024,2.97c-0.146,0.049-0.292,0.098-0.437,0.149c-0.536-0.376-1.087-0.74-1.654-1.09
			c-0.373-0.231-0.747-0.468-1.055-0.71c-0.004,0.004-0.009,0.007-0.014,0.011c0.182,0.355,0.336,0.7,0.542,1.181
			c0.176,0.412,0.353,0.824,0.53,1.235C48.556,15.567,48.424,15.623,48.292,15.68z"/>
		<path d="M51.336,14.039c0.234,0.051,0.543,0.051,0.85-0.035c0.454-0.126,0.666-0.403,0.585-0.709
			c-0.074-0.279-0.308-0.4-0.833-0.42c-0.633-0.018-1.077-0.161-1.21-0.578c-0.151-0.465,0.219-0.963,0.955-1.161
			c0.381-0.102,0.686-0.101,0.869-0.063c-0.019,0.118-0.037,0.236-0.055,0.354c-0.131-0.03-0.403-0.054-0.741,0.038
			c-0.511,0.138-0.628,0.442-0.566,0.646c0.085,0.282,0.348,0.352,0.892,0.379c0.667,0.034,1.033,0.214,1.143,0.661
			c0.115,0.472-0.173,0.967-0.973,1.189c-0.328,0.092-0.712,0.11-0.929,0.061C51.326,14.279,51.331,14.159,51.336,14.039z"/>
		<path d="M54.151,10.967c-0.384,0.076-0.767,0.158-1.148,0.246c-0.026-0.111-0.053-0.223-0.08-0.334
			c0.938-0.217,1.884-0.396,2.835-0.538c0.017,0.113,0.034,0.227,0.051,0.34c-0.389,0.058-0.777,0.122-1.164,0.193
			c0.169,0.914,0.341,1.827,0.514,2.74c-0.152,0.027-0.303,0.056-0.454,0.086C54.52,12.79,54.335,11.878,54.151,10.967z"/>
		<path d="M56.691,10.215c0.125,1.035,0.251,2.07,0.381,3.105c-0.153,0.019-0.306,0.039-0.459,0.06
			c-0.145-1.033-0.288-2.066-0.428-3.1C56.354,10.257,56.522,10.235,56.691,10.215z"/>
		<path d="M58.068,10.072c0.049,0.617,0.098,1.234,0.148,1.851c0.059,0.694,0.437,0.957,0.91,0.928
			c0.522-0.031,0.856-0.347,0.841-1.034c-0.017-0.619-0.032-1.237-0.047-1.855c0.169-0.006,0.339-0.011,0.508-0.014
			c0.005,0.609,0.012,1.219,0.019,1.828c0.006,0.961-0.557,1.359-1.317,1.406c-0.718,0.044-1.296-0.258-1.395-1.228
			c-0.059-0.611-0.118-1.223-0.175-1.835C57.73,10.102,57.899,10.086,58.068,10.072z"/>
		<path d="M62.034,10.291c-0.391-0.009-0.782-0.012-1.173-0.008c0-0.114,0-0.229,0-0.343c0.963-0.009,1.925,0.019,2.884,0.085
			c-0.011,0.114-0.021,0.228-0.03,0.342c-0.393-0.026-0.784-0.047-1.178-0.061c-0.05,0.926-0.098,1.853-0.144,2.78
			c-0.153-0.005-0.308-0.01-0.461-0.013C61.965,12.146,61.999,11.219,62.034,10.291z"/>
		<path d="M65.91,11.914c-0.473-0.064-0.946-0.118-1.422-0.162c-0.043,0.374-0.086,0.747-0.129,1.121
			c0.514,0.047,1.025,0.107,1.535,0.178c-0.019,0.111-0.036,0.223-0.055,0.334c-0.656-0.091-1.316-0.164-1.979-0.216
			c0.102-1.038,0.205-2.075,0.312-3.113c0.701,0.056,1.399,0.132,2.095,0.229c-0.018,0.111-0.036,0.223-0.055,0.334
			c-0.522-0.072-1.046-0.132-1.571-0.182c-0.039,0.328-0.077,0.655-0.115,0.982c0.48,0.045,0.959,0.1,1.437,0.164
			C65.945,11.694,65.928,11.804,65.91,11.914z"/>
		<path d="M70.942,12.841c-0.346,1.021-1.228,1.361-2.093,1.158c-0.9-0.211-1.405-0.954-1.211-1.884
			c0.203-0.972,1.095-1.477,2.112-1.234C70.795,11.131,71.243,11.957,70.942,12.841z M68.137,12.202
			c-0.15,0.659,0.12,1.318,0.823,1.483c0.704,0.167,1.273-0.284,1.491-0.963c0.189-0.598,0.005-1.333-0.805-1.527
			C68.835,11.004,68.288,11.537,68.137,12.202z"/>
		<path d="M72.047,11.568c0.664,0.207,1.322,0.432,1.973,0.678c-0.045,0.104-0.089,0.209-0.133,0.314
			c-0.487-0.184-0.979-0.356-1.475-0.518c-0.121,0.327-0.242,0.653-0.362,0.98c0.442,0.145,0.883,0.298,1.319,0.461
			c-0.043,0.104-0.086,0.207-0.129,0.31c-0.433-0.161-0.868-0.313-1.307-0.456c-0.164,0.445-0.326,0.89-0.489,1.335
			c-0.146-0.047-0.292-0.094-0.438-0.139C71.351,13.543,71.697,12.555,72.047,11.568z"/>
		<path d="M76.322,13.595c-0.352-0.166-0.705-0.324-1.063-0.477c0.05-0.104,0.099-0.208,0.148-0.313
			c0.878,0.376,1.74,0.789,2.582,1.239c-0.058,0.1-0.116,0.2-0.175,0.299c-0.344-0.184-0.691-0.361-1.042-0.533
			c-0.445,0.824-0.889,1.648-1.33,2.473c-0.138-0.067-0.275-0.132-0.413-0.197C75.459,15.255,75.89,14.424,76.322,13.595z"/>
		<path d="M79.141,16.652c-0.401-0.253-0.808-0.498-1.22-0.732c-0.201,0.322-0.401,0.645-0.601,0.968
			c0.444,0.253,0.883,0.518,1.314,0.793c-0.064,0.094-0.129,0.188-0.193,0.282c-0.557-0.356-1.124-0.692-1.702-1.009
			c0.54-0.903,1.082-1.806,1.627-2.708c0.611,0.336,1.213,0.693,1.803,1.069c-0.065,0.094-0.13,0.188-0.195,0.282
			c-0.442-0.282-0.892-0.553-1.347-0.813c-0.177,0.282-0.353,0.564-0.528,0.847c0.416,0.237,0.827,0.484,1.232,0.74
			C79.268,16.466,79.204,16.559,79.141,16.652z"/>
		<path d="M80.98,19.663c-0.176-0.044-0.49-0.198-0.832-0.454c-0.787-0.59-1.084-1.448-0.487-2.304
			c0.566-0.814,1.65-0.914,2.622-0.181c0.382,0.289,0.571,0.55,0.638,0.675c-0.105,0.058-0.211,0.116-0.316,0.175
			c-0.092-0.17-0.27-0.381-0.524-0.574c-0.725-0.547-1.505-0.498-1.992,0.174c-0.459,0.633-0.331,1.306,0.353,1.819
			c0.229,0.171,0.485,0.308,0.682,0.361C81.075,19.457,81.028,19.56,80.98,19.663z"/>
		<path d="M83.848,18.057c-0.298,0.326-0.596,0.652-0.894,0.979c0.457,0.396,0.904,0.806,1.339,1.232
			c0.315-0.31,0.632-0.62,0.948-0.929c0.122,0.12,0.243,0.24,0.363,0.362c-0.767,0.728-1.532,1.457-2.295,2.188
			c-0.109-0.11-0.22-0.22-0.33-0.328c0.353-0.348,0.706-0.696,1.059-1.043c-0.43-0.421-0.872-0.827-1.324-1.218
			c-0.333,0.366-0.666,0.733-0.999,1.101c-0.117-0.101-0.234-0.201-0.353-0.3c0.696-0.793,1.396-1.585,2.097-2.376
			C83.59,17.834,83.719,17.945,83.848,18.057z"/>
		<path d="M83.866,22.469c0.782-0.711,1.566-1.42,2.353-2.127c0.128,0.137,0.255,0.276,0.38,0.416
			c-0.122,0.665-0.264,1.321-0.422,1.969c-0.113,0.446-0.237,0.827-0.389,1.16c0.005,0.003,0.01,0.006,0.015,0.01
			c0.306-0.294,0.604-0.54,0.993-0.844c0.349-0.271,0.698-0.542,1.048-0.813c0.101,0.127,0.2,0.255,0.299,0.385
			c-0.845,0.635-1.688,1.271-2.529,1.911c-0.096-0.125-0.193-0.25-0.291-0.374c0.184-0.631,0.351-1.272,0.499-1.921
			c0.098-0.427,0.201-0.856,0.332-1.225c-0.006-0.003-0.011-0.006-0.016-0.01c-0.282,0.286-0.564,0.541-0.96,0.89
			c-0.339,0.298-0.678,0.597-1.017,0.896C84.064,22.683,83.966,22.575,83.866,22.469z"/>
		<path d="M89.2,27.065c-0.947,0.527-1.828,0.128-2.334-0.655c-0.525-0.816-0.399-1.734,0.374-2.305
			c0.809-0.596,1.816-0.349,2.407,0.577C90.253,25.635,90.022,26.609,89.2,27.065z M87.553,24.526
			c-0.558,0.395-0.801,1.089-0.392,1.725c0.408,0.64,1.135,0.717,1.757,0.357c0.546-0.318,0.908-1.022,0.438-1.762
			C88.885,24.11,88.115,24.128,87.553,24.526z"/>
		<path d="M90.878,26.914c0.085,0.161,0.169,0.322,0.251,0.485c-0.834,0.431-1.668,0.864-2.5,1.298
			c0.246,0.487,0.481,0.984,0.704,1.493c-0.104,0.047-0.207,0.094-0.311,0.142c-0.287-0.657-0.596-1.296-0.924-1.916
			C89.023,27.913,89.95,27.412,90.878,26.914z"/>
		<path d="M91.894,33.574c-1.033,0.303-1.814-0.343-2.15-1.283c-0.35-0.979-0.042-1.891,0.83-2.284
			c0.911-0.41,1.848,0.094,2.239,1.205C93.213,32.354,92.79,33.313,91.894,33.574z M90.795,30.519
			c-0.626,0.267-1.004,0.918-0.731,1.683c0.271,0.766,0.965,1.037,1.646,0.822c0.599-0.189,1.095-0.83,0.786-1.715
			C92.181,30.425,91.425,30.251,90.795,30.519z"/>
		<path d="M91.35,37.793c-0.109-0.234-0.294-0.701-0.407-1.254c-0.128-0.622-0.129-1.147,0.053-1.618
			c0.164-0.414,0.506-0.747,0.976-0.883c0.895-0.265,1.816,0.431,2.126,1.967c0.105,0.529,0.101,0.968,0.07,1.179
			c-0.117-0.032-0.233-0.064-0.351-0.095c0.036-0.258,0.036-0.574-0.054-1.03c-0.223-1.103-0.867-1.665-1.624-1.458
			c-0.77,0.213-1.061,0.937-0.862,1.904c0.071,0.351,0.152,0.588,0.222,0.706c0.306-0.058,0.612-0.115,0.918-0.172
			c-0.053-0.293-0.109-0.584-0.169-0.873c0.105-0.022,0.212-0.044,0.318-0.067c0.098,0.476,0.188,0.958,0.268,1.446
			C92.339,37.627,91.844,37.71,91.35,37.793z"/>
		<path d="M91.462,39.618c0.439-0.047,0.879-0.094,1.319-0.14c0.543-0.545,1.074-1.111,1.594-1.696
			c0.034,0.231,0.067,0.465,0.099,0.7c-0.256,0.26-0.515,0.515-0.775,0.766c-0.216,0.201-0.389,0.364-0.592,0.528
			c0.001,0.004,0.001,0.009,0.002,0.013c0.216,0.106,0.436,0.256,0.688,0.42c0.308,0.207,0.614,0.422,0.919,0.644
			c0.017,0.24,0.032,0.482,0.046,0.725c-0.63-0.539-1.268-1.039-1.913-1.501c-0.442,0.038-0.885,0.076-1.327,0.114
			C91.503,39.999,91.483,39.808,91.462,39.618z"/>
	</g>
</g>
<text fill="#fff" transform="matrix(0.9331 0.021 -0.0225 0.9998 36.836 81.5049)" font-family="Devanagari" font-size="7.9638">सर्वे सन्तु निरामया</text>
<g fill="#fff">
	<g>
		<path d="M30.796,46.989c0.108-1.712,0.325-3.347,0.641-4.904c0.08,0.019,0.159,0.037,0.239,0.055
			c-0.083,0.409-0.16,0.824-0.229,1.244c0.38,0.071,0.761,0.142,1.142,0.213c0.052,0.243,0.106,0.485,0.162,0.728
			c-0.061,0.095-0.122,0.19-0.183,0.287c-0.059-0.197-0.116-0.396-0.172-0.594c-0.341-0.058-0.681-0.116-1.021-0.174
			c-0.09,0.599-0.167,1.208-0.228,1.828c0.467,0.05,0.935,0.101,1.403,0.151c0.384-0.826,0.795-1.603,1.229-2.333
			c0.122-0.203,0.239-0.292,0.35-0.272c0.027,0.006,0.052,0.02,0.075,0.043c0.082,0.086,0.114,0.22,0.097,0.405
			c-0.062,0.06-0.123,0.12-0.184,0.18c0.02-0.201-0.031-0.313-0.156-0.337c-0.058-0.012-0.109,0.019-0.153,0.093
			c-0.49,0.834-0.951,1.729-1.376,2.687c-0.443-0.04-0.887-0.081-1.33-0.121c-0.023,0.277-0.044,0.557-0.062,0.839
			C30.959,46.999,30.877,46.995,30.796,46.989z"/>
		<path d="M31.443,42.057c0.431-2.111,1.045-4.08,1.817-5.906c0.073,0.034,0.146,0.067,0.219,0.101
			c-0.339,0.802-0.647,1.631-0.923,2.489c0.198,0.071,0.395,0.141,0.592,0.211c-0.025-0.248,0.011-0.515,0.108-0.793
			c0.091-0.259,0.223-0.465,0.391-0.615c0.16-0.145,0.322-0.215,0.485-0.213c0.03,0.001,0.063,0.009,0.099,0.024
			c0.191,0.083,0.313,0.347,0.38,0.789c0.025,0.171,0.032,0.294,0.017,0.369c-0.087,0.059-0.174,0.119-0.261,0.18
			c-0.061-0.694-0.178-1.088-0.383-1.178c-0.059-0.025-0.125-0.013-0.197,0.035c-0.123,0.083-0.226,0.232-0.304,0.446
			c-0.112,0.308-0.13,0.59-0.053,0.836c0.044,0.147,0.084,0.234,0.116,0.261c0.422,0.151,0.844,0.302,1.267,0.453
			c-0.121,0.102-0.242,0.206-0.363,0.311c-0.248-0.084-0.495-0.168-0.743-0.253c0.044,0.067,0.077,0.197,0.102,0.388
			c0.027,0.198,0.028,0.35,0.002,0.458c0,0.012-0.016,0.076-0.047,0.191c-0.087,0.321-0.203,0.575-0.354,0.763
			c-0.161,0.199-0.329,0.282-0.506,0.239c-0.057-0.015-0.117-0.046-0.182-0.094c-0.135-0.104-0.223-0.275-0.26-0.509
			c-0.037-0.236-0.017-0.498,0.06-0.784c0.147-0.45,0.343-0.734,0.576-0.859c-0.226-0.077-0.451-0.153-0.676-0.23
			c-0.29,0.948-0.539,1.93-0.746,2.944C31.599,42.093,31.521,42.075,31.443,42.057z M33.127,39.406
			c-0.166,0.176-0.288,0.405-0.366,0.685c-0.137,0.493-0.106,0.894,0.081,1.183c0.064,0.1,0.132,0.158,0.205,0.177
			c0.049,0.013,0.104,0.004,0.167-0.025c0.163-0.077,0.273-0.236,0.335-0.476c0.066-0.26,0.07-0.54,0.011-0.845
			C33.486,39.721,33.345,39.487,33.127,39.406z"/>
		<path d="M33.251,36.171c0.095-0.226,0.193-0.45,0.293-0.671c-0.018-0.009-0.069-0.012-0.156-0.007
			c-0.138,0.008-0.251,0.021-0.338,0.039c-0.333,0.071-0.593,0.236-0.775,0.494c-0.087,0.122-0.152,0.237-0.196,0.346
			c-0.128,0.32-0.126,0.61,0.001,0.86c0.029,0.054,0.073,0.096,0.133,0.123c0.081,0.035,0.188,0.029,0.321-0.019
			c0.141-0.05,0.251-0.129,0.333-0.238c-0.047,0.157-0.094,0.314-0.14,0.473c-0.186,0.181-0.382,0.236-0.591,0.159
			c-0.423-0.154-0.501-0.642-0.192-1.427c0.134-0.275,0.333-0.493,0.593-0.649c0.204-0.123,0.415-0.191,0.631-0.208
			c0.181-0.014,0.315-0.014,0.401-0.001c0.134-0.296,0.273-0.588,0.416-0.876c0.071,0.038,0.142,0.076,0.213,0.113
			c-0.114,0.23-0.226,0.463-0.334,0.699c0.718,0.358,1.436,0.715,2.153,1.073c-0.129,0.078-0.258,0.156-0.387,0.237
			c-0.646-0.311-1.292-0.622-1.938-0.933c-0.076,0.17-0.15,0.342-0.223,0.515C33.397,36.238,33.324,36.204,33.251,36.171z"/>
		<path d="M33.999,34.54c0.865-1.74,1.881-3.337,3.022-4.791c0.063,0.05,0.126,0.101,0.189,0.151
			c-0.501,0.638-0.978,1.305-1.428,1.999c0.175,0.118,0.35,0.236,0.525,0.354c0.029-0.23,0.121-0.46,0.275-0.685
			c0.144-0.209,0.315-0.358,0.51-0.448c0.185-0.087,0.357-0.106,0.514-0.06c0.029,0.009,0.059,0.024,0.09,0.049
			c0.167,0.127,0.227,0.401,0.195,0.819c-0.013,0.162-0.033,0.275-0.063,0.339c-0.097,0.029-0.194,0.06-0.291,0.09
			c0.091-0.644,0.064-1.033-0.114-1.17c-0.052-0.039-0.118-0.046-0.198-0.023c-0.137,0.042-0.268,0.148-0.39,0.32
			c-0.175,0.248-0.252,0.497-0.232,0.739c0.011,0.145,0.03,0.234,0.056,0.268c0.374,0.252,0.749,0.505,1.123,0.757
			c-0.139,0.058-0.278,0.117-0.417,0.179c-0.221-0.145-0.441-0.289-0.662-0.433c0.028,0.073,0.033,0.198,0.015,0.375
			c-0.017,0.185-0.048,0.321-0.097,0.41c-0.002,0.011-0.032,0.063-0.086,0.158c-0.152,0.262-0.319,0.455-0.504,0.579
			c-0.197,0.132-0.376,0.157-0.538,0.069c-0.052-0.029-0.103-0.074-0.155-0.135c-0.107-0.13-0.155-0.306-0.141-0.523
			c0.015-0.22,0.09-0.448,0.226-0.681c0.238-0.361,0.488-0.56,0.739-0.608c-0.201-0.131-0.401-0.263-0.602-0.394
			c-0.483,0.77-0.934,1.572-1.349,2.409C34.142,34.616,34.07,34.578,33.999,34.54z M36.189,32.655
			c-0.197,0.112-0.364,0.283-0.5,0.511c-0.237,0.402-0.293,0.767-0.175,1.075c0.04,0.106,0.094,0.177,0.159,0.214
			c0.044,0.025,0.1,0.033,0.167,0.024c0.173-0.023,0.313-0.133,0.424-0.329c0.12-0.212,0.184-0.461,0.192-0.75
			C36.467,33.037,36.381,32.789,36.189,32.655z"/>
		<path d="M39.49,32.168c0.036,0.049-0.001,0.167-0.104,0.356c-0.072,0.13-0.147,0.252-0.229,0.366
			c-0.148,0.208-0.292,0.372-0.435,0.489c-0.19,0.157-0.348,0.197-0.474,0.115c-0.198-0.13-0.223-0.37-0.064-0.714
			c0.066-0.143,0.141-0.274,0.225-0.392c0.061-0.085,0.114-0.15,0.161-0.198c0.043-0.007,0.086-0.015,0.129-0.021
			c-0.044,0.061-0.111,0.181-0.199,0.361c-0.221,0.461-0.232,0.763-0.054,0.894c0.094,0.028,0.212-0.064,0.357-0.274
			c0.079-0.111,0.153-0.24,0.224-0.388c0.171-0.353,0.245-0.543,0.21-0.58C39.322,32.177,39.406,32.172,39.49,32.168z"/>
		<path d="M36.993,29.785c0.856-1.094,1.783-2.107,2.771-3.041c0.056,0.059,0.112,0.117,0.168,0.175
			c-0.191,0.181-0.381,0.365-0.567,0.552c0.572,0.567,1.145,1.134,1.717,1.701c-0.144,0.023-0.288,0.047-0.432,0.073
			c-0.321-0.311-0.643-0.621-0.964-0.932c-0.291,0.299-0.575,0.605-0.853,0.92c-0.281,0.319-0.337,0.603-0.177,0.837
			c0.175,0.148,0.486,0.171,0.928,0.09c0.394-0.072,0.623-0.127,0.691-0.18c-0.005,0.019-0.011,0.037-0.017,0.055
			c-0.023,0.026-0.115,0.064-0.276,0.119c-0.434,0.146-0.82,0.216-1.161,0.196c-0.195-0.012-0.348-0.059-0.454-0.144
			c-0.046-0.038-0.086-0.091-0.119-0.16c-0.062-0.134-0.063-0.275,0-0.422c0.049-0.115,0.155-0.269,0.32-0.457
			c0.307-0.351,0.622-0.692,0.943-1.023c-0.138-0.134-0.276-0.267-0.415-0.401c-0.671,0.69-1.31,1.421-1.913,2.192
			C37.12,29.885,37.057,29.835,36.993,29.785z"/>
		<path d="M42.344,24.587c1.002-0.74,2.049-1.412,3.131-2.014c0.041,0.069,0.082,0.139,0.123,0.208
			c-0.223,0.124-0.444,0.251-0.665,0.381c0.425,0.681,0.85,1.362,1.274,2.043c-0.148-0.011-0.297-0.021-0.446-0.029
			c-0.17-0.266-0.341-0.532-0.512-0.797c-0.026,0.124-0.193,0.337-0.49,0.649c-0.12,0.078-0.279,0.128-0.48,0.154
			c-0.407,0.052-0.675,0-0.802-0.173c-0.15-0.205-0.301-0.411-0.452-0.616c-0.179,0.126-0.357,0.254-0.534,0.385
			C42.442,24.715,42.393,24.651,42.344,24.587z M43.348,24.17c0.202,0.283,0.403,0.566,0.605,0.849
			c0.107,0.148,0.261,0.153,0.467,0.016c0.053-0.035,0.123-0.1,0.211-0.194c0.052-0.055,0.14-0.171,0.27-0.348
			c0.139-0.19,0.211-0.298,0.212-0.326c-0.172-0.268-0.344-0.536-0.516-0.804C44.175,23.622,43.758,23.891,43.348,24.17z"/>
		<path d="M44.652,25.962c0.237-0.586,0.499-1.17,0.786-1.75c0.038,0.06,0.077,0.12,0.115,0.179
			c-0.249,0.527-0.478,1.057-0.685,1.589C44.796,25.974,44.724,25.968,44.652,25.962z"/>
		<path d="M45.406,22.612c0.43-0.241,0.865-0.47,1.305-0.688c0.038,0.071,0.075,0.142,0.113,0.213
			c-0.229,0.114-0.458,0.231-0.685,0.351c0.393,0.699,0.786,1.398,1.179,2.097c-0.144-0.02-0.287-0.039-0.432-0.057
			c-0.359-0.621-0.718-1.242-1.078-1.862c-0.093,0.051-0.187,0.103-0.28,0.154C45.488,22.75,45.447,22.682,45.406,22.612z"/>
		<path d="M45.823,22.372c-0.047,0.027-0.094,0.054-0.141,0.082c-0.003-0.002-0.013-0.003-0.026-0.005
			c-0.007-0.002-0.014-0.003-0.021-0.005c0-0.001-0.001-0.001-0.001-0.002c-0.002-0.003-0.006-0.003-0.014-0.001
			c0,0-0.001-0.001-0.001-0.002c-0.001,0-0.002,0.001-0.003,0.002c-0.002-0.001-0.004-0.001-0.006-0.002c-0.005,0-0.01,0-0.015,0
			c-0.019-0.001-0.048,0-0.087,0c-0.004,0-0.009,0-0.014,0c-0.066,0.003-0.172,0.007-0.317,0.014
			c-0.243,0.011-0.558,0.127-0.938,0.359c-0.198,0.121-0.342,0.227-0.435,0.316c-0.11-0.02-0.221-0.039-0.332-0.057
			c0.09-0.074,0.226-0.168,0.405-0.28c0.336-0.209,0.646-0.327,0.925-0.357c0.115-0.013,0.335-0.035,0.66-0.056
			c0.065-0.004,0.164,0.007,0.295,0.032c-0.164-0.286-0.431-0.431-0.803-0.423c-0.36,0.006-0.785,0.152-1.262,0.448
			c-0.118-0.032-0.236-0.064-0.354-0.095c0.269-0.17,0.551-0.297,0.841-0.378c0.47-0.133,0.896-0.107,1.271,0.067
			C45.602,22.097,45.726,22.213,45.823,22.372z"/>
		<path d="M48.331,21.441c-0.502,0.215-0.999,0.444-1.489,0.687c-0.038-0.071-0.075-0.142-0.113-0.213
			c1.307-0.647,2.659-1.198,4.043-1.652c0.027,0.075,0.054,0.151,0.081,0.226c-0.269,0.088-0.536,0.18-0.802,0.276
			c0.289,0.744,0.579,1.489,0.868,2.233c-0.133-0.042-0.267-0.083-0.401-0.124c-0.052-0.129-0.104-0.259-0.156-0.389
			c-0.006,0.086-0.142,0.231-0.402,0.44c-0.115,0.093-0.247,0.17-0.396,0.231c-0.21,0.086-0.438,0.123-0.688,0.108
			c-0.263-0.017-0.431-0.088-0.499-0.222c-0.048-0.094-0.016-0.221,0.101-0.381c-0.152,0.016-0.268,0.024-0.347,0.024
			c-0.411,0.004-0.658-0.062-0.737-0.21c-0.063-0.117,0.059-0.252,0.37-0.397c0.237-0.109,0.476-0.215,0.716-0.318
			C48.429,21.654,48.38,21.548,48.331,21.441z M49.034,22.238c0.052,0.04,0.104,0.079,0.157,0.119
			c-0.29,0.12-0.485,0.309-0.583,0.563c-0.025,0.065-0.028,0.119-0.009,0.163c0.034,0.075,0.126,0.11,0.278,0.108
			c0.135-0.004,0.262-0.031,0.383-0.082c0.041-0.017,0.075-0.035,0.102-0.053c0.14-0.098,0.31-0.245,0.514-0.439
			c0.249-0.236,0.363-0.387,0.334-0.459c-0.17-0.421-0.34-0.843-0.51-1.264c-0.338,0.126-0.675,0.258-1.009,0.396
			c0.072,0.161,0.144,0.322,0.215,0.483c-0.27,0.112-0.538,0.227-0.804,0.347c-0.276,0.124-0.387,0.24-0.335,0.343
			c0.052,0.104,0.186,0.154,0.4,0.154c0.132-0.001,0.258-0.013,0.378-0.038c0.034-0.04,0.067-0.075,0.098-0.104
			C48.73,22.39,48.86,22.311,49.034,22.238z"/>
		<path d="M50.659,20.3c0.466-0.155,0.937-0.299,1.41-0.433c0.023,0.076,0.047,0.153,0.07,0.229
			c-0.247,0.069-0.493,0.142-0.738,0.218c0.253,0.756,0.507,1.513,0.761,2.269c-0.137-0.046-0.274-0.091-0.413-0.135
			c-0.235-0.674-0.47-1.348-0.706-2.021c-0.101,0.033-0.203,0.065-0.303,0.099C50.713,20.451,50.686,20.375,50.659,20.3z"/>
		<path d="M51.169,20.135c-0.032,0.012-0.064,0.024-0.097,0.036c-0.099-0.208-0.346-0.368-0.747-0.47
			c-0.323-0.081-0.779-0.02-1.353,0.2c-0.109-0.049-0.218-0.097-0.328-0.145c0.652-0.238,1.202-0.285,1.626-0.159
			C50.741,19.735,51.037,19.919,51.169,20.135z"/>
		<path d="M52.657,19.017c-0.04,0.09-0.051,0.165-0.033,0.226c0.015,0.055,0.048,0.101,0.097,0.137c0.063,0.046,0.21,0.112,0.44,0.2
			c0.367-0.09,0.736-0.173,1.106-0.25c0.018,0.078,0.035,0.156,0.053,0.234c-0.326,0.067-0.651,0.14-0.975,0.218
			c0.202,0.771,0.404,1.541,0.606,2.312c-0.133-0.055-0.267-0.108-0.402-0.161c-0.189-0.687-0.379-1.374-0.568-2.061
			c-0.302,0.077-0.603,0.157-0.903,0.242c-0.024-0.077-0.047-0.153-0.071-0.229c0.365-0.104,0.731-0.201,1.1-0.291
			c-0.024,0.002-0.099-0.018-0.227-0.06c-0.336-0.11-0.53-0.235-0.573-0.382c-0.004-0.016-0.006-0.04-0.004-0.073
			c0.006-0.132,0.09-0.264,0.253-0.395c0.155-0.127,0.34-0.217,0.555-0.268c0.102-0.024,0.204-0.036,0.306-0.035
			c0.559,0,1.076,0.154,1.538,0.454c0.129,0.082,0.21,0.143,0.248,0.179c-0.023-0.024-0.084-0.063-0.182-0.117
			c-0.362-0.203-0.74-0.333-1.126-0.392c-0.22-0.033-0.427-0.028-0.617,0.015C52.983,18.587,52.775,18.754,52.657,19.017z"/>
		<path d="M57.44,18.833c0.009,0.08,0.019,0.159,0.028,0.238c-0.254,0.027-0.508,0.058-0.761,0.09
			c0.113,0.787,0.226,1.574,0.339,2.361c-0.131-0.067-0.263-0.134-0.396-0.2c-0.11-0.703-0.221-1.405-0.331-2.107
			c-0.381,0.054-0.76,0.115-1.139,0.183c0.087,0.444,0.175,0.888,0.262,1.332c0.019,0.094,0.024,0.153,0.016,0.176
			c-0.007,0.058-0.062,0.1-0.166,0.127c-0.085,0.016-0.209-0.015-0.373-0.093c-0.132-0.062-0.264-0.123-0.398-0.184
			c-0.072-0.033-0.115-0.067-0.129-0.103c0.003-0.011,0.002-0.034,0-0.07c0.004-0.026,0.029-0.049,0.074-0.068
			c0.113-0.03,0.194-0.05,0.241-0.06c0.1-0.02,0.2-0.04,0.3-0.059c-0.065-0.31-0.13-0.621-0.195-0.931
			c-0.326,0.062-0.651,0.129-0.974,0.202c-0.019-0.078-0.038-0.155-0.057-0.233C54.987,19.166,56.21,18.965,57.44,18.833z"/>
		<path d="M57.472,18.83c1.772-0.188,3.561-0.232,5.34-0.135c-0.005,0.08-0.01,0.16-0.015,0.239
			c-0.781-0.043-1.564-0.059-2.347-0.046c0.004,0.208,0.007,0.417,0.011,0.625c0.193-0.102,0.424-0.154,0.682-0.153
			c0.242,0.001,0.452,0.057,0.631,0.166c0.169,0.102,0.28,0.23,0.329,0.384c0.008,0.028,0.013,0.062,0.012,0.101
			c-0.009,0.207-0.19,0.41-0.534,0.618c-0.135,0.081-0.234,0.127-0.3,0.137c-0.076-0.063-0.153-0.125-0.23-0.187
			c0.552-0.283,0.844-0.524,0.854-0.746c0.002-0.063-0.03-0.122-0.092-0.174c-0.106-0.087-0.264-0.134-0.465-0.138
			c-0.288-0.004-0.524,0.069-0.7,0.22c-0.106,0.089-0.167,0.153-0.178,0.193c0.008,0.446,0.016,0.891,0.023,1.337
			c-0.12-0.082-0.242-0.163-0.364-0.244c-0.008-0.26-0.016-0.521-0.024-0.781c-0.041,0.063-0.135,0.134-0.282,0.217
			c-0.152,0.087-0.273,0.135-0.368,0.143c-0.009,0.004-0.065,0.008-0.167,0.013c-0.283,0.016-0.52-0.02-0.713-0.107
			c-0.206-0.093-0.321-0.229-0.34-0.411c-0.006-0.059,0.001-0.125,0.02-0.2c0.041-0.159,0.148-0.291,0.324-0.396
			c0.174-0.104,0.389-0.165,0.64-0.178c0.405,0.002,0.694,0.099,0.867,0.28c-0.007-0.237-0.014-0.474-0.021-0.71
			c-0.856,0.024-1.711,0.081-2.563,0.171C57.49,18.989,57.481,18.91,57.472,18.83z M60.085,19.637
			c-0.193-0.101-0.416-0.146-0.663-0.134c-0.437,0.021-0.745,0.169-0.916,0.432c-0.06,0.089-0.084,0.172-0.078,0.247
			c0.004,0.05,0.028,0.101,0.07,0.151c0.11,0.132,0.269,0.19,0.478,0.177c0.227-0.015,0.452-0.097,0.679-0.247
			C59.94,20.075,60.087,19.868,60.085,19.637z"/>
		<path d="M62.791,18.694c0.221,0.012,0.441,0.026,0.661,0.042c0.002-0.019-0.014-0.068-0.045-0.147
			c-0.051-0.126-0.099-0.227-0.142-0.301c-0.167-0.285-0.39-0.472-0.664-0.554c-0.13-0.041-0.246-0.063-0.35-0.066
			c-0.308-0.013-0.547,0.083-0.713,0.286c-0.037,0.044-0.058,0.1-0.062,0.165c-0.003,0.088,0.035,0.186,0.117,0.295
			c0.084,0.115,0.185,0.193,0.302,0.234c-0.146,0.007-0.29,0.016-0.435,0.025c-0.208-0.115-0.314-0.282-0.315-0.503
			c-0.006-0.448,0.367-0.677,1.118-0.65c0.273,0.033,0.519,0.145,0.734,0.333c0.168,0.148,0.294,0.321,0.377,0.517
			c0.071,0.163,0.115,0.288,0.131,0.372c0.294,0.022,0.589,0.049,0.882,0.079c-0.009,0.08-0.018,0.159-0.026,0.238
			c-0.235-0.024-0.47-0.046-0.705-0.065c-0.071,0.791-0.143,1.583-0.213,2.374c-0.107-0.093-0.217-0.186-0.326-0.277
			c0.055-0.708,0.109-1.417,0.163-2.125c-0.168-0.012-0.336-0.022-0.505-0.032C62.781,18.853,62.786,18.774,62.791,18.694z"/>
		<path d="M67.727,19.338c1.347,0.28,2.674,0.646,3.972,1.098c-0.028,0.075-0.057,0.15-0.085,0.225
			c-0.231-0.081-0.465-0.158-0.698-0.233c-0.263,0.753-0.526,1.507-0.789,2.26c-0.085-0.116-0.172-0.231-0.259-0.347
			c0.102-0.306,0.204-0.612,0.307-0.918c-0.146-0.019-0.292-0.052-0.44-0.099c-0.322-0.101-0.575-0.247-0.764-0.445
			c-0.043,0.04-0.083,0.071-0.12,0.095c-0.104,0.063-0.276,0.126-0.516,0.193c0.312,0.387,0.608,0.779,0.892,1.174
			c-0.035,0.01-0.069,0.021-0.104,0.031c-0.294-0.405-0.604-0.806-0.928-1.201c-0.007-0.012-0.016-0.025-0.027-0.039
			c-0.002-0.002-0.003-0.004-0.005-0.006c-0.005-0.006-0.012-0.013-0.022-0.021c0.001-0.001,0.001-0.002,0.001-0.004
			c-0.013-0.015-0.026-0.029-0.04-0.044c-0.003-0.006-0.01-0.014-0.02-0.025c-0.004-0.004-0.009-0.009-0.013-0.013
			c-0.062-0.064-0.119-0.145-0.174-0.241c-0.044-0.077-0.059-0.144-0.045-0.201c0.02-0.081,0.103-0.137,0.252-0.164
			c0.137-0.025,0.271-0.023,0.406,0.007c0.09,0.022,0.183,0.059,0.276,0.111c0.104,0.017,0.186-0.078,0.243-0.284
			c0.032-0.115,0.026-0.227-0.021-0.334c-0.004-0.009-0.014-0.023-0.024-0.042c-0.003,0-0.005-0.001-0.008-0.002
			c-0.431-0.108-0.864-0.208-1.3-0.299C67.691,19.494,67.709,19.415,67.727,19.338z M70.546,20.311
			c-0.439-0.135-0.882-0.261-1.328-0.377c0.035,0.15,0.02,0.33-0.04,0.539c-0.004,0.013-0.007,0.025-0.011,0.038
			c-0.001,0.005-0.005,0.01-0.01,0.016c-0.04,0.138-0.093,0.245-0.162,0.322c0.128,0.096,0.272,0.172,0.432,0.229
			c0.294,0.082,0.568,0.121,0.824,0.116C70.35,20.898,70.448,20.604,70.546,20.311z"/>
		<path d="M71.707,20.438c0.982,0.342,1.946,0.732,2.889,1.172c-0.035,0.072-0.071,0.144-0.107,0.216
			c-0.456-0.213-0.918-0.414-1.385-0.604c0.014,0.154-0.025,0.331-0.113,0.529c-0.006,0.012-0.011,0.024-0.017,0.036
			c-0.002,0.004-0.004,0.01-0.01,0.015c-0.058,0.132-0.127,0.23-0.206,0.297c0.115,0.113,0.246,0.207,0.398,0.284
			c0.133,0.057,0.291,0.109,0.477,0.16c0.211,0.057,0.367,0.083,0.469,0.074c-0.024,0.083-0.049,0.167-0.074,0.25
			c-0.198-0.037-0.399-0.104-0.603-0.199c-0.304-0.144-0.534-0.322-0.695-0.541c-0.048,0.034-0.092,0.06-0.134,0.078
			c-0.11,0.049-0.291,0.089-0.536,0.125c0.256,0.425,0.497,0.852,0.723,1.282c-0.035,0.006-0.07,0.012-0.106,0.018
			c-0.236-0.441-0.488-0.879-0.756-1.313c-0.006-0.013-0.012-0.026-0.022-0.042c-0.001-0.002-0.003-0.005-0.005-0.007
			c-0.002-0.006-0.009-0.014-0.018-0.023c0-0.001,0.001-0.002,0.001-0.003c-0.012-0.017-0.023-0.033-0.035-0.05
			c-0.002-0.006-0.007-0.015-0.017-0.027c-0.003-0.004-0.007-0.009-0.01-0.014c-0.053-0.072-0.099-0.159-0.14-0.261
			c-0.033-0.082-0.039-0.15-0.018-0.205c0.03-0.078,0.121-0.122,0.273-0.129c0.14-0.008,0.271,0.011,0.4,0.06
			c0.087,0.033,0.173,0.082,0.261,0.146c0.102,0.03,0.194-0.053,0.28-0.25c0.048-0.11,0.056-0.222,0.025-0.334
			c-0.005-0.01-0.011-0.025-0.02-0.044c-0.003-0.001-0.006-0.002-0.009-0.003c-0.412-0.164-0.828-0.318-1.247-0.464
			C71.65,20.588,71.679,20.514,71.707,20.438z"/>
		<path d="M74.486,20.905c-0.111,0.015-0.222,0.03-0.332,0.047c-0.063-0.093-0.126-0.185-0.19-0.277
			c0.113-0.014,0.227-0.027,0.34-0.04C74.365,20.726,74.426,20.815,74.486,20.905z"/>
		<path d="M76.691,22.69c0.583,0.33,1.155,0.681,1.716,1.052c-0.046,0.066-0.092,0.133-0.138,0.199
			c-0.214-0.142-0.429-0.28-0.646-0.415c-0.44,0.671-0.882,1.343-1.322,2.014c-0.054-0.134-0.11-0.268-0.167-0.401
			c0.111-0.173,0.222-0.347,0.332-0.52c-0.374,0.12-0.758,0.064-1.168-0.163c-0.017-0.011-0.033-0.022-0.05-0.033
			c-0.032-0.022-0.062-0.04-0.085-0.053c-0.013-0.007-0.026-0.014-0.039-0.021c-0.288-0.192-0.483-0.517-0.602-0.982
			c-0.046-0.177-0.053-0.301-0.022-0.373c0.13,0.063,0.32,0.122,0.574,0.181c0.678,0.156,1.078,0.154,1.204-0.047
			c0.019-0.031,0.029-0.065,0.033-0.103c0.021-0.272-0.114-0.49-0.408-0.646c-0.303-0.159-0.503-0.148-0.597,0.027
			c-0.077,0.143-0.035,0.314,0.123,0.515c0.067,0.085,0.156,0.16,0.268,0.223c-0.106-0.02-0.206-0.055-0.302-0.104
			c-0.174-0.091-0.299-0.203-0.375-0.339c-0.074-0.129-0.095-0.255-0.06-0.379c0.107-0.206,0.403-0.225,0.881-0.038
			c0.354,0.186,0.559,0.439,0.605,0.745c0.021,0.132,0,0.249-0.061,0.349c-0.042,0.07-0.104,0.124-0.187,0.16
			c-0.193,0.088-0.572,0.042-1.143-0.11c-0.199-0.054-0.354-0.105-0.466-0.157c0.003,0.094,0.02,0.188,0.049,0.281
			c0.082,0.268,0.278,0.483,0.585,0.652c0.294,0.162,0.575,0.235,0.847,0.217c0.359-0.023,0.579-0.092,0.66-0.219
			c0.187-0.292,0.374-0.585,0.561-0.878c-0.146-0.088-0.292-0.175-0.439-0.26C76.802,22.938,76.747,22.814,76.691,22.69z"/>
		<path d="M78.294,23.667c0.413,0.271,0.819,0.552,1.219,0.845c-0.049,0.064-0.098,0.128-0.146,0.193
			c-0.209-0.153-0.419-0.302-0.631-0.449c-0.471,0.652-0.94,1.304-1.41,1.956c-0.046-0.135-0.093-0.27-0.141-0.404
			c0.413-0.588,0.826-1.176,1.239-1.765c-0.089-0.059-0.178-0.118-0.267-0.177C78.202,23.8,78.248,23.734,78.294,23.667z"/>
		<path d="M79.557,24.544c1.086,0.798,2.121,1.678,3.093,2.639c-0.058,0.057-0.114,0.114-0.172,0.172
			c-0.187-0.185-0.376-0.367-0.567-0.545c-0.554,0.584-1.108,1.169-1.662,1.753c-0.028-0.143-0.059-0.286-0.089-0.429
			c0.243-0.264,0.486-0.527,0.729-0.791c-0.378-0.344-0.766-0.675-1.161-0.995c-0.065,0.079-0.132,0.159-0.197,0.238
			c-0.061,0.072-0.129,0.086-0.207,0.043c-0.102-0.081-0.153-0.15-0.157-0.209c-0.003-0.062-0.006-0.125-0.009-0.187
			c-0.008-0.079-0.015-0.157-0.022-0.236c-0.005-0.058,0.006-0.106,0.035-0.144c0.013-0.015,0.042-0.033,0.091-0.052
			c0.09-0.017,0.181,0.011,0.274,0.084c0.52,0.406,1.026,0.833,1.519,1.279c0.19-0.206,0.381-0.412,0.571-0.618
			c-0.71-0.644-1.45-1.248-2.216-1.811C79.458,24.672,79.508,24.608,79.557,24.544z"/>
		<path d="M80.98,29.003c0.141,0.028,0.281,0.059,0.423,0.089c0.027,0.142,0.053,0.283,0.078,0.424
			c-0.063-0.023-0.137-0.032-0.218-0.023c-0.052,0.034-0.121,0.07-0.21,0.106c-0.198,0.051-0.409,0.006-0.638-0.134
			c0.009-0.015,0.017-0.03,0.025-0.045c0.143,0.081,0.269,0.104,0.381,0.067c0.032-0.01,0.062-0.031,0.091-0.06
			c0.075-0.073,0.11-0.161,0.103-0.266C81.003,29.109,80.991,29.056,80.98,29.003z"/>
		<path d="M85.293,33.849c0.018-0.067,0.049-0.116,0.093-0.144c0.068-0.042,0.158-0.031,0.269,0.038
			c0.066,0.042,0.127,0.109,0.183,0.207c0.067,0.118,0.106,0.235,0.115,0.346c0.009,0.122-0.021,0.204-0.092,0.244
			c-0.069,0.041-0.158,0.04-0.264,0.001c-0.107-0.041-0.193-0.114-0.26-0.222c-0.041,0.25-0.085,0.5-0.132,0.747
			c-0.022-0.02-0.045-0.041-0.067-0.061c0.012-0.062,0.023-0.124,0.034-0.187c-0.047,0-0.108-0.01-0.185-0.028
			c-0.383-0.087-0.65-0.25-0.808-0.5c-0.272-0.431-0.28-0.765-0.006-1.022c-0.113-0.076-0.196-0.152-0.251-0.233
			c-0.117-0.175-0.155-0.361-0.112-0.558c0.018-0.085,0.052-0.147,0.1-0.182c0.095-0.068,0.208-0.055,0.337,0.041
			c0.098,0.073,0.168,0.142,0.216,0.212c0.074,0.111,0.084,0.218,0.028,0.322c-0.062,0.042-0.143,0.044-0.243,0.012
			c-0.101-0.036-0.182-0.1-0.248-0.196c-0.025-0.039-0.043-0.075-0.051-0.109c-0.071,0.126-0.054,0.27,0.047,0.431
			c0.074,0.12,0.158,0.206,0.253,0.255c0.059-0.02,0.122-0.026,0.192-0.017c0.012,0,0.067,0.007,0.168,0.024
			c0.003,0.071,0.006,0.142,0.009,0.213c-0.014-0.006-0.079-0.012-0.198-0.019c-0.101-0.004-0.186,0.017-0.256,0.063
			c-0.054,0.036-0.088,0.082-0.102,0.141c-0.036,0.146-0.019,0.277,0.055,0.396c0.145,0.238,0.432,0.39,0.867,0.466
			c0.102,0.02,0.18,0.028,0.233,0.027c0.016-0.103,0.03-0.206,0.045-0.31c-0.073-0.088-0.139-0.18-0.196-0.278
			c-0.072-0.122-0.144-0.299-0.218-0.529c-0.06-0.183-0.026-0.499,0.087-0.955c0.058-0.236,0.144-0.396,0.262-0.479
			c0.252-0.177,0.569,0.002,0.929,0.568c0.131,0.211,0.26,0.425,0.386,0.641c0.115-0.07,0.23-0.141,0.346-0.212
			c-0.472-0.808-0.979-1.582-1.517-2.32c0.063-0.051,0.127-0.102,0.189-0.152c0.832,1.141,1.589,2.365,2.26,3.671
			c-0.072,0.036-0.145,0.072-0.217,0.108c-0.164-0.321-0.334-0.636-0.51-0.947c-0.184,0.109-0.368,0.219-0.552,0.328
			c-0.157-0.278-0.318-0.553-0.483-0.823c-0.324-0.528-0.604-0.708-0.819-0.563c-0.072,0.05-0.13,0.136-0.173,0.26
			c-0.13,0.372-0.077,0.742,0.157,1.133C85.234,33.768,85.267,33.817,85.293,33.849z M84.076,32.497
			c-0.034,0.062-0.023,0.134,0.031,0.214c0.043,0.064,0.093,0.106,0.149,0.128c0.059,0.023,0.106,0.021,0.147-0.007
			c0.043-0.067,0.031-0.15-0.034-0.248C84.281,32.45,84.182,32.421,84.076,32.497z"/>
		<path d="M87.746,34.119c0.246,0.474,0.48,0.959,0.702,1.456c-0.072,0.035-0.145,0.07-0.217,0.105
			c-0.116-0.259-0.235-0.514-0.357-0.767c-0.712,0.37-1.424,0.74-2.136,1.11c0.021-0.152,0.039-0.305,0.058-0.458
			c0.632-0.339,1.265-0.679,1.896-1.019c-0.052-0.104-0.104-0.208-0.158-0.311C87.605,34.197,87.676,34.158,87.746,34.119z"/>
		<path d="M88.465,35.612c0.47,1.052,0.887,2.152,1.245,3.302c-0.076,0.026-0.151,0.053-0.228,0.079
			c-0.174-0.557-0.36-1.102-0.561-1.635c-0.099,0.129-0.249,0.236-0.45,0.318c-0.013,0.005-0.024,0.01-0.037,0.015
			c-0.004,0.002-0.01,0.002-0.017,0.003c-0.029,0.011-0.075,0.024-0.14,0.042c-0.189,0.049-0.376,0.006-0.562-0.125
			c-0.084-0.059-0.189-0.144-0.314-0.251c-0.113,0.539-0.239,1.071-0.379,1.598c-0.029-0.025-0.059-0.05-0.088-0.075
			c0.14-0.543,0.266-1.093,0.376-1.648c0.005-0.015,0.011-0.03,0.014-0.049c0-0.003,0.001-0.007,0.001-0.011
			c0.002-0.006,0.003-0.018,0.004-0.031c0.001-0.001,0.002-0.002,0.003-0.003c0.004-0.022,0.007-0.044,0.011-0.065
			c0.002-0.008,0.004-0.019,0.006-0.036c0.001-0.007,0.002-0.013,0.003-0.02c0.013-0.098,0.04-0.203,0.081-0.315
			c0.033-0.089,0.076-0.147,0.13-0.172c0.076-0.035,0.173,0.006,0.288,0.124c0.104,0.105,0.187,0.229,0.244,0.371
			c0.038,0.096,0.066,0.205,0.084,0.328c0.053,0.108,0.178,0.12,0.376,0.038c0.111-0.046,0.193-0.127,0.25-0.24
			c0.004-0.013,0.011-0.029,0.018-0.051c-0.001-0.003-0.002-0.006-0.003-0.008c-0.181-0.467-0.372-0.925-0.572-1.375
			C88.32,35.682,88.393,35.647,88.465,35.612z"/>
		<path d="M89.71,38.914c0.612,1.964,1.055,4.071,1.302,6.321c-0.079,0.009-0.158,0.019-0.237,0.029
			c-0.108-0.988-0.255-1.947-0.438-2.879c-0.204,0.045-0.407,0.09-0.611,0.135c0.143,0.211,0.242,0.476,0.296,0.791
			c0.049,0.291,0.038,0.56-0.032,0.8c-0.065,0.228-0.17,0.39-0.311,0.482c-0.025,0.015-0.058,0.028-0.097,0.034
			c-0.204,0.031-0.44-0.155-0.716-0.538c-0.106-0.148-0.173-0.259-0.196-0.338c0.045-0.104,0.091-0.209,0.135-0.314
			c0.395,0.61,0.69,0.927,0.91,0.894c0.063-0.01,0.113-0.059,0.151-0.146c0.064-0.149,0.078-0.348,0.04-0.594
			c-0.056-0.351-0.179-0.621-0.364-0.805c-0.11-0.11-0.187-0.167-0.228-0.173c-0.437,0.097-0.873,0.193-1.309,0.29
			c0.054-0.161,0.107-0.322,0.159-0.483c0.254-0.06,0.508-0.121,0.762-0.181c-0.071-0.035-0.162-0.133-0.275-0.29
			c-0.12-0.163-0.193-0.294-0.224-0.404c-0.005-0.009-0.022-0.075-0.051-0.192c-0.08-0.327-0.101-0.607-0.06-0.846
			c0.043-0.256,0.15-0.414,0.324-0.472c0.056-0.018,0.123-0.024,0.201-0.02c0.166,0.017,0.321,0.113,0.465,0.294
			s0.253,0.417,0.323,0.707c0.09,0.473,0.06,0.835-0.08,1.074c0.23-0.055,0.462-0.11,0.692-0.165
			c-0.212-1.01-0.467-1.987-0.761-2.93C89.559,38.966,89.634,38.94,89.71,38.914z M89.522,42.095
			c0.057-0.249,0.052-0.518-0.017-0.806c-0.119-0.507-0.336-0.832-0.636-0.978c-0.102-0.049-0.188-0.063-0.26-0.041
			c-0.049,0.015-0.093,0.051-0.133,0.111c-0.104,0.151-0.124,0.346-0.062,0.585c0.066,0.259,0.198,0.506,0.396,0.744
			C89.061,42.01,89.295,42.143,89.522,42.095z"/>
		<path d="M90.996,45.094c0.07,0.621,0.126,1.252,0.167,1.895c-0.08,0.005-0.159,0.01-0.239,0.015
			c-0.021-0.335-0.046-0.667-0.075-0.997c-0.791,0.077-1.582,0.153-2.372,0.229c0.07-0.155,0.14-0.312,0.208-0.468
			c0.706-0.08,1.412-0.159,2.118-0.239c-0.015-0.136-0.029-0.271-0.044-0.406C90.838,45.114,90.917,45.104,90.996,45.094z"/>
	</g>
</g>
<rect x="-98.5" y="30.667" fill="none" width="72.333" height="21"/>
<rect x="43.834" y="65.334" fill="none" width="53.333" height="6.666"/>
<text fill="#fff" transform="matrix(1 0 0 1 43.8335 68.1738)" font-family="'MyriadPro-Regular'" font-size="4">Govt. of NCT of Delhi</text>
<g fill="#fff">
	<polygon stroke="#fff" stroke-miterlimit="10" points="54.922,63.342 54.661,51.707 57.969,51.637 58.23,63.273 	"/>
	<polygon fill="#fff" stroke="#fff" stroke-miterlimit="10" points="55.993,54.449 41.157,41.676 43.356,39.284 
		58.192,52.057 	"/>
</g>
<g fill="#fff">
	<polygon stroke="#fff" stroke-miterlimit="10" points="65.639,63.342 65.908,51.707 62.499,51.637 62.23,63.273 	"/>
	<polygon fill="#fff" stroke="#fff" stroke-miterlimit="10" points="64.536,54.449 79.824,41.676 77.557,39.285 
		62.269,52.057 	"/>
</g>
<g id="_x31_.psd">
	
		<image overflow="visible" width="852" height="480" id="_x31_" xlink:href="34B56BF7.png"  transform="matrix(0.0379 -4.631679e-004 4.711637e-004 0.0385 44.2754 32.2007)">
	</image>
</g>
</svg>
